# xmcd
#
# Track frame offsets:
#	150
#	16125
#	28575
#	54600
#	71475
#	92850
#	111525
#	123825
#	139650
#	159150
#	177375
#	190050
#	205125
#	223050
#	242475
#	261675
#
# Disc length: 3732 seconds
#
# Revision: 1
# Processed by: cddbd v1.5.2PL0 Copyright (c) Steve Scherf et al.
# Submitted via: audiograbber 1.83.01
#
DISCID=e70e9210
DTITLE=Наталья Нелюбова - Песни Южных Провинций
DYEAR=1996
DGENRE=Acoustic
TTITLE0=Одна китайская песня
TTITLE1=Песнь о соколе
TTITLE2=Откровение Андрея
TTITLE3=Ангел на двоих
TTITLE4=Зимний свет
TTITLE5=По реке плыл дом...
TTITLE6=Луна и ветер
TTITLE7=Вальс
TTITLE8=Травы
TTITLE9=Летающий над нами
TTITLE10=Ещё одна птица
TTITLE11=На приезд Федора Люттова в г. Томск (мистическое)
TTITLE12=6 псалом из сборника "Сожаления"
TTITLE13=Дорога №23
TTITLE14=Который из них
TTITLE15=Золото южных равнин
EXTD=
EXTT0=
EXTT1=
EXTT2=
EXTT3=
EXTT4=
EXTT5=
EXTT6=
EXTT7=
EXTT8=
EXTT9=
EXTT10=
EXTT11=
EXTT12=
EXTT13=
EXTT14=
EXTT15=
PLAYORDER=
